<mxfile host="app.diagrams.net" agent="Mozilla/5.0 (Windows NT 10.0; Win64; x64) AppleWebKit/537.36 (KHTML, like Gecko) Chrome/131.0.0.0 Safari/537.36" version="24.7.12">
  <diagram name="第 1 页" id="7lHfO7HrMb2l2q8tupaO">
    <mxGraphModel dx="1434" dy="738" grid="0" gridSize="10" guides="1" tooltips="1" connect="1" arrows="1" fold="1" page="0" pageScale="1" pageWidth="827" pageHeight="1169" math="0" shadow="0">
      <root>
        <mxCell id="0" />
        <mxCell id="1" parent="0" />
        <mxCell id="WvYvltL3kd7CsRdZBm1Z-6" value="" style="edgeStyle=orthogonalEdgeStyle;rounded=0;orthogonalLoop=1;jettySize=auto;html=1;" edge="1" parent="1" source="WvYvltL3kd7CsRdZBm1Z-1" target="WvYvltL3kd7CsRdZBm1Z-5">
          <mxGeometry relative="1" as="geometry" />
        </mxCell>
        <mxCell id="WvYvltL3kd7CsRdZBm1Z-1" value="用户税务地区变更生成CBI/RBI审批单任务" style="strokeWidth=2;html=1;shape=mxgraph.flowchart.start_2;whiteSpace=wrap;" vertex="1" parent="1">
          <mxGeometry x="137" y="73" width="246" height="76" as="geometry" />
        </mxCell>
        <mxCell id="WvYvltL3kd7CsRdZBm1Z-4" value="&lt;div style=&quot;font-family: Consolas, &amp;quot;Courier New&amp;quot;, monospace; line-height: 18px; white-space: pre;&quot;&gt;&lt;div&gt;支持运行参数：&lt;/div&gt;&lt;div&gt;{&lt;/div&gt;&lt;div&gt;&amp;nbsp; &amp;nbsp; &lt;span style=&quot;color: #a31515;&quot;&gt;&quot;mode&quot;&lt;/span&gt;: &lt;span style=&quot;color: #0451a5;&quot;&gt;&quot;1&quot;&lt;/span&gt;,&lt;span style=&quot;color: #5f8fbf;&quot;&gt;//模式: 1-初始化,扫描所有开户数据 2-指定userId运行&lt;/span&gt;&lt;/div&gt;&lt;div&gt;&amp;nbsp; &amp;nbsp; &lt;span style=&quot;color: #a31515;&quot;&gt;&quot;param&quot;&lt;/span&gt;: [&lt;/div&gt;&lt;div&gt;&amp;nbsp; &amp;nbsp; &amp;nbsp; &amp;nbsp; &lt;span style=&quot;color: #098658;&quot;&gt;1111&lt;/span&gt;,&lt;/div&gt;&lt;div&gt;&amp;nbsp; &amp;nbsp; &amp;nbsp; &amp;nbsp; &lt;span style=&quot;color: #098658;&quot;&gt;2222&lt;/span&gt;&lt;/div&gt;&lt;div&gt;&amp;nbsp; &amp;nbsp; ] &lt;span style=&quot;color: #5f8fbf;&quot;&gt;// 指定的userId列表&lt;/span&gt;&lt;/div&gt;&lt;div&gt;}&lt;/div&gt;&lt;div&gt;若没有指定参数，则默认扫描上个月第一天到上个月最后一天的t_ekyc_manual_approve以及t_modify_customer_info的数据&lt;/div&gt;&lt;/div&gt;" style="text;html=1;align=center;verticalAlign=middle;whiteSpace=wrap;rounded=0;" vertex="1" parent="1">
          <mxGeometry x="239" y="22" width="841" height="178" as="geometry" />
        </mxCell>
        <mxCell id="WvYvltL3kd7CsRdZBm1Z-14" value="" style="edgeStyle=orthogonalEdgeStyle;rounded=0;orthogonalLoop=1;jettySize=auto;html=1;" edge="1" parent="1" source="WvYvltL3kd7CsRdZBm1Z-5" target="WvYvltL3kd7CsRdZBm1Z-13">
          <mxGeometry relative="1" as="geometry" />
        </mxCell>
        <mxCell id="WvYvltL3kd7CsRdZBm1Z-15" value="N" style="edgeLabel;html=1;align=center;verticalAlign=middle;resizable=0;points=[];" vertex="1" connectable="0" parent="WvYvltL3kd7CsRdZBm1Z-14">
          <mxGeometry x="-0.3333" y="-1" relative="1" as="geometry">
            <mxPoint as="offset" />
          </mxGeometry>
        </mxCell>
        <mxCell id="WvYvltL3kd7CsRdZBm1Z-17" value="" style="edgeStyle=orthogonalEdgeStyle;rounded=0;orthogonalLoop=1;jettySize=auto;html=1;" edge="1" parent="1" source="WvYvltL3kd7CsRdZBm1Z-5" target="WvYvltL3kd7CsRdZBm1Z-16">
          <mxGeometry relative="1" as="geometry" />
        </mxCell>
        <mxCell id="WvYvltL3kd7CsRdZBm1Z-20" value="Y" style="edgeLabel;html=1;align=center;verticalAlign=middle;resizable=0;points=[];" vertex="1" connectable="0" parent="WvYvltL3kd7CsRdZBm1Z-17">
          <mxGeometry x="0.225" y="-3" relative="1" as="geometry">
            <mxPoint as="offset" />
          </mxGeometry>
        </mxCell>
        <mxCell id="WvYvltL3kd7CsRdZBm1Z-5" value="存在运行参数？" style="rhombus;whiteSpace=wrap;html=1;strokeWidth=2;" vertex="1" parent="1">
          <mxGeometry x="220" y="227" width="80" height="80" as="geometry" />
        </mxCell>
        <mxCell id="WvYvltL3kd7CsRdZBm1Z-13" value="" style="whiteSpace=wrap;html=1;strokeWidth=2;" vertex="1" parent="1">
          <mxGeometry x="360" y="237" width="120" height="60" as="geometry" />
        </mxCell>
        <mxCell id="WvYvltL3kd7CsRdZBm1Z-19" value="" style="edgeStyle=orthogonalEdgeStyle;rounded=0;orthogonalLoop=1;jettySize=auto;html=1;" edge="1" parent="1" source="WvYvltL3kd7CsRdZBm1Z-16" target="WvYvltL3kd7CsRdZBm1Z-18">
          <mxGeometry relative="1" as="geometry" />
        </mxCell>
        <mxCell id="WvYvltL3kd7CsRdZBm1Z-21" value="N" style="edgeLabel;html=1;align=center;verticalAlign=middle;resizable=0;points=[];" vertex="1" connectable="0" parent="WvYvltL3kd7CsRdZBm1Z-19">
          <mxGeometry x="-0.05" y="-1" relative="1" as="geometry">
            <mxPoint as="offset" />
          </mxGeometry>
        </mxCell>
        <mxCell id="WvYvltL3kd7CsRdZBm1Z-23" value="" style="edgeStyle=orthogonalEdgeStyle;rounded=0;orthogonalLoop=1;jettySize=auto;html=1;" edge="1" parent="1" source="WvYvltL3kd7CsRdZBm1Z-16" target="WvYvltL3kd7CsRdZBm1Z-22">
          <mxGeometry relative="1" as="geometry" />
        </mxCell>
        <mxCell id="WvYvltL3kd7CsRdZBm1Z-24" value="Y" style="edgeLabel;html=1;align=center;verticalAlign=middle;resizable=0;points=[];" vertex="1" connectable="0" parent="WvYvltL3kd7CsRdZBm1Z-23">
          <mxGeometry x="0.2" y="2" relative="1" as="geometry">
            <mxPoint as="offset" />
          </mxGeometry>
        </mxCell>
        <mxCell id="WvYvltL3kd7CsRdZBm1Z-16" value="mode=&quot;1&quot;" style="rhombus;whiteSpace=wrap;html=1;strokeWidth=2;" vertex="1" parent="1">
          <mxGeometry x="220" y="387" width="80" height="80" as="geometry" />
        </mxCell>
        <mxCell id="WvYvltL3kd7CsRdZBm1Z-18" value="mode=&quot;2&quot;" style="rhombus;whiteSpace=wrap;html=1;strokeWidth=2;" vertex="1" parent="1">
          <mxGeometry x="220" y="547" width="80" height="80" as="geometry" />
        </mxCell>
        <mxCell id="WvYvltL3kd7CsRdZBm1Z-22" value="" style="whiteSpace=wrap;html=1;strokeWidth=2;" vertex="1" parent="1">
          <mxGeometry x="40" y="397" width="120" height="60" as="geometry" />
        </mxCell>
      </root>
    </mxGraphModel>
  </diagram>
</mxfile>
